<svg width="800" height="300" viewBox="0 0 800 300" fill="none" xmlns="http://www.w3.org/2000/svg">
<rect width="800" height="300" fill="white"/>
<path d="M149.945 163.8C149.945 164.6 149.385 165.28 148.265 165.84C147.225 166.32 145.825 166.56 144.065 166.56C142.545 166.56 140.145 166.4 136.865 166.08C133.665 165.76 130.265 165.24 126.665 164.52C123.065 163.8 119.625 162.92 116.345 161.88C113.145 160.76 110.785 159.44 109.265 157.92C109.425 158.56 109.705 159.44 110.105 160.56C110.505 161.6 110.945 162.76 111.425 164.04C112.305 166.28 113.105 168.56 113.825 170.88C114.625 173.12 115.025 174.92 115.025 176.28C115.025 178.84 114.825 180.76 114.425 182.04C114.105 183.4 113.345 184.08 112.145 184.08C111.185 184.08 110.505 183.68 110.105 182.88C109.705 182.08 109.505 181.12 109.505 180C109.505 179.92 109.505 179.72 109.505 179.4C109.505 179.08 109.545 178.16 109.625 176.64C109.625 176 109.585 175.36 109.505 174.72C109.425 174.08 109.305 173.52 109.145 173.04C107.865 169.92 106.665 166.8 105.545 163.68C104.505 160.48 103.505 156.96 102.545 153.12C102.305 152.32 102.025 151.32 101.705 150.12C101.465 148.84 101.225 147.2 100.985 145.2C100.745 143.12 100.545 140.6 100.385 137.64C100.225 134.6 100.145 130.92 100.145 126.6C100.145 123.24 100.425 120.68 100.985 118.92C101.545 117.08 102.225 116.16 103.025 116.16C103.745 116.16 104.345 116.72 104.825 117.84C105.305 118.88 105.545 119.88 105.545 120.84C105.545 123.48 105.505 125.52 105.425 126.96C105.425 128.4 105.425 129.44 105.425 130.08C105.425 132.56 105.545 135.04 105.785 137.52C106.025 139.92 106.305 142.16 106.625 144.24C106.945 146.64 107.345 148.92 107.825 151.08C108.785 149.08 109.825 146.96 110.945 144.72C112.145 142.4 113.385 140.12 114.665 137.88C115.945 135.56 117.225 133.28 118.505 131.04C119.785 128.8 121.025 126.68 122.225 124.68C123.025 123.32 123.905 122.16 124.865 121.2C125.905 120.24 126.865 119.76 127.745 119.76C128.385 119.76 129.105 120.04 129.905 120.6C130.705 121.08 131.105 121.76 131.105 122.64C131.105 122.88 131.065 123.16 130.985 123.48C130.905 123.72 130.825 123.92 130.745 124.08C130.345 124.72 129.865 125.36 129.305 126C128.825 126.64 128.385 127.28 127.985 127.92C126.705 129.76 125.265 131.84 123.665 134.16C122.065 136.48 120.545 138.8 119.105 141.12C117.745 143.36 116.585 145.48 115.625 147.48C114.665 149.48 114.185 151.08 114.185 152.28C114.185 153.56 114.945 154.68 116.465 155.64C117.985 156.6 119.865 157.44 122.105 158.16C124.345 158.8 126.785 159.36 129.425 159.84C132.145 160.24 134.665 160.6 136.985 160.92C139.305 161.16 141.265 161.36 142.865 161.52C144.545 161.6 145.465 161.64 145.625 161.64C147.465 161.64 148.625 161.8 149.105 162.12C149.665 162.36 149.945 162.92 149.945 163.8ZM251.077 155.04C251.077 156.48 250.397 158.28 249.037 160.44C247.757 162.52 245.997 164.56 243.757 166.56C241.517 168.56 238.917 170.28 235.957 171.72C232.997 173.08 229.917 173.76 226.717 173.76C225.277 173.76 223.757 173.52 222.157 173.04C220.557 172.56 218.997 171.88 217.477 171C215.957 170.04 214.597 168.92 213.397 167.64C212.197 166.28 211.317 164.76 210.757 163.08C210.277 163.56 209.677 164.36 208.957 165.48C208.317 166.6 207.597 167.76 206.797 168.96C205.997 170.08 205.117 171.08 204.157 171.96C203.197 172.76 202.197 173.16 201.157 173.16C200.117 173.16 199.237 172.64 198.517 171.6C197.877 170.48 197.357 169.28 196.957 168C196.557 166.64 196.277 165.36 196.117 164.16C195.957 162.96 195.877 162.28 195.877 162.12C195.877 161.16 196.157 159.36 196.717 156.72C197.277 154 198.117 151.2 199.237 148.32C200.357 145.44 201.757 142.88 203.437 140.64C205.197 138.4 207.237 137.28 209.557 137.28C210.437 137.28 210.997 137.68 211.237 138.48C211.557 139.2 211.717 139.92 211.717 140.64V144.24C212.117 144.56 212.517 144.8 212.917 144.96C213.397 145.04 213.797 145.2 214.117 145.44C214.517 145.6 214.797 145.88 214.957 146.28C215.197 146.68 215.317 147.32 215.317 148.2C215.317 148.76 215.277 149.28 215.197 149.76C215.117 150.16 215.077 150.56 215.077 150.96C215.077 153.04 215.237 155.08 215.557 157.08C215.877 159.08 216.517 160.88 217.477 162.48C218.437 164 219.757 165.28 221.437 166.32C223.117 167.28 225.357 167.76 228.157 167.76C231.677 167.76 234.637 167.04 237.037 165.6C239.517 164.08 241.557 162.44 243.157 160.68C244.837 158.84 246.157 157.2 247.117 155.76C248.077 154.24 248.877 153.48 249.517 153.48C250.557 153.48 251.077 154 251.077 155.04ZM208.957 149.76C208.957 149.44 208.877 149.16 208.717 148.92C208.557 148.6 208.477 148.32 208.477 148.08C208.477 147.76 208.557 147.48 208.717 147.24C208.877 147 208.957 146.68 208.957 146.28C208.957 146.04 208.877 145.88 208.717 145.8C208.557 145.64 208.477 145.48 208.477 145.32C207.757 145.48 206.997 146.16 206.197 147.36C205.477 148.56 204.757 149.96 204.037 151.56C203.397 153.16 202.877 154.8 202.477 156.48C202.077 158.08 201.877 159.4 201.877 160.44C201.877 161 202.037 161.92 202.357 163.2C202.677 164.48 203.037 165.32 203.437 165.72C204.797 162.92 206.037 160.2 207.157 157.56C208.357 154.92 208.957 152.32 208.957 149.76ZM322.154 125.76C321.114 126.96 319.634 128.16 317.714 129.36C315.794 130.48 313.874 131.52 311.954 132.48C310.034 133.44 308.354 134.28 306.914 135C305.474 135.64 304.754 136.08 304.754 136.32C304.754 136.56 304.914 137.28 305.234 138.48C305.554 139.68 305.914 141.12 306.314 142.8C306.794 144.4 307.274 146.08 307.754 147.84C308.234 149.6 308.634 151.16 308.954 152.52C309.114 153.32 309.314 154.36 309.554 155.64C309.794 156.92 309.994 158.2 310.154 159.48C310.394 160.76 310.594 161.92 310.754 162.96C310.914 163.92 310.994 164.44 310.994 164.52C310.994 165.72 310.794 166.96 310.394 168.24C309.994 169.52 309.354 170.16 308.474 170.16C307.994 170.16 307.554 169.96 307.154 169.56C306.754 169.16 306.394 168.72 306.074 168.24C305.754 167.68 305.514 167.16 305.354 166.68C305.194 166.2 305.114 165.84 305.114 165.6C305.114 165.44 305.114 165.2 305.114 164.88C305.194 164.56 305.234 164.2 305.234 163.8C305.234 162.28 304.994 160.08 304.514 157.2C304.354 156.32 304.034 154.96 303.554 153.12C303.074 151.28 302.594 149.4 302.114 147.48C301.554 145.24 300.914 142.8 300.194 140.16C299.874 139.04 299.674 138.48 299.594 138.48C299.034 138.48 298.074 138.84 296.714 139.56C295.434 140.2 293.954 141.04 292.274 142.08C290.594 143.04 288.834 144.12 286.994 145.32C285.154 146.44 283.434 147.52 281.834 148.56C280.234 149.52 278.874 150.36 277.754 151.08C276.554 151.72 275.834 152.04 275.594 152.04C274.554 152.04 273.714 151.68 273.074 150.96C272.434 150.24 272.114 149.44 272.114 148.56C272.114 148.08 272.794 147.4 274.154 146.52C275.434 145.56 277.074 144.52 279.074 143.4C280.994 142.28 283.114 141.12 285.434 139.92C287.674 138.72 289.754 137.64 291.674 136.68C293.674 135.72 295.314 134.92 296.594 134.28C297.954 133.64 298.634 133.32 298.634 133.32C297.914 129.64 297.314 126.36 296.834 123.48C296.434 121 296.034 118.72 295.634 116.64C295.314 114.56 295.154 113.44 295.154 113.28C295.154 112.24 295.354 111.48 295.754 111C296.234 110.44 296.754 110.16 297.314 110.16C298.194 110.16 298.754 110.76 298.994 111.96C299.874 116.28 300.674 120.12 301.394 123.48C302.194 126.84 302.954 129.56 303.674 131.64C304.394 131.48 305.634 131.04 307.394 130.32C309.154 129.52 310.994 128.68 312.914 127.8C314.834 126.92 316.554 126.16 318.074 125.52C319.674 124.8 320.594 124.44 320.834 124.44C321.314 124.44 321.594 124.6 321.674 124.92C321.834 125.24 321.994 125.52 322.154 125.76ZM407.634 110.16C407.634 110.32 407.394 111 406.914 112.2C406.514 113.32 405.954 114.72 405.234 116.4C404.514 118 403.754 119.76 402.954 121.68C402.234 123.52 401.514 125.28 400.794 126.96C400.074 128.56 399.474 129.92 398.994 131.04C398.594 132.08 398.394 132.64 398.394 132.72C398.394 133.04 398.554 133.4 398.874 133.8C399.274 134.2 399.674 134.64 400.074 135.12C400.554 135.6 400.954 136.2 401.274 136.92C401.674 137.56 401.874 138.32 401.874 139.2C401.874 139.68 401.674 140.2 401.274 140.76C400.954 141.32 400.434 141.76 399.714 142.08C399.554 141.68 399.074 141.08 398.274 140.28C397.474 139.4 396.834 138.8 396.354 138.48C395.954 139.12 395.314 140.48 394.434 142.56C393.554 144.56 392.634 146.72 391.674 149.04C390.794 151.28 389.954 153.32 389.154 155.16C388.434 157 388.034 158.04 387.954 158.28C388.834 159.16 389.714 160.04 390.594 160.92C391.554 161.8 392.394 162.72 393.114 163.68C393.834 164.64 394.434 165.68 394.914 166.8C395.394 167.92 395.634 169.24 395.634 170.76C395.634 173.32 394.514 175.32 392.274 176.76C390.114 178.2 387.674 178.92 384.954 178.92C384.634 178.92 384.154 178.84 383.514 178.68C382.874 178.52 382.234 178.36 381.594 178.2C381.034 178.04 380.514 177.88 380.034 177.72C379.554 177.56 379.314 177.48 379.314 177.48C378.754 177.48 378.114 178.28 377.394 179.88C376.674 181.48 375.914 183.24 375.114 185.16C374.314 187.16 373.474 188.96 372.594 190.56C371.794 192.16 370.994 192.96 370.194 192.96C369.554 192.96 369.074 192.52 368.754 191.64C368.434 190.84 368.274 190.4 368.274 190.32C368.274 189.2 368.554 187.88 369.114 186.36C369.674 184.92 370.314 183.48 371.034 182.04C371.754 180.68 372.394 179.4 372.954 178.2C373.514 177 373.794 176.16 373.794 175.68C373.794 175.44 373.474 175.12 372.834 174.72C372.194 174.24 371.474 173.72 370.674 173.16C369.954 172.52 369.274 171.84 368.634 171.12C367.994 170.32 367.674 169.48 367.674 168.6C367.674 167.96 367.954 167.16 368.514 166.2C369.074 165.24 369.794 164.76 370.674 164.76C370.914 164.76 371.194 164.92 371.514 165.24C371.834 165.56 371.994 165.84 371.994 166.08C371.994 166.32 371.874 166.56 371.634 166.8C371.474 167.04 371.394 167.28 371.394 167.52C371.394 167.76 371.554 168.12 371.874 168.6C372.274 169 372.714 169.4 373.194 169.8C373.674 170.2 374.114 170.56 374.514 170.88C374.994 171.2 375.354 171.36 375.594 171.36C375.914 171.36 376.394 170.76 377.034 169.56C377.674 168.36 378.314 167.08 378.954 165.72C379.594 164.28 380.114 162.96 380.514 161.76C380.994 160.56 381.234 159.96 381.234 159.96C381.074 159.88 380.674 159.68 380.034 159.36C379.474 158.96 378.834 158.56 378.114 158.16C377.474 157.68 376.794 157.2 376.074 156.72C375.434 156.24 374.954 155.84 374.634 155.52C374.234 155.12 373.874 154.6 373.554 153.96C373.314 153.24 373.074 152.56 372.834 151.92C372.674 151.2 372.514 150.56 372.354 150C372.274 149.36 372.234 148.88 372.234 148.56C372.234 147.04 372.914 145.32 374.274 143.4C375.634 141.4 377.314 139.56 379.314 137.88C381.314 136.12 383.394 134.68 385.554 133.56C387.794 132.36 389.714 131.76 391.314 131.76C391.634 131.76 392.114 131.84 392.754 132C393.714 130 394.714 127.6 395.754 124.8C396.794 121.92 397.834 119.2 398.874 116.64C399.994 114.08 401.074 111.88 402.114 110.04C403.234 108.2 404.354 107.28 405.474 107.28C406.914 107.28 407.634 108.24 407.634 110.16ZM390.714 137.88C390.074 137.96 389.034 138.36 387.594 139.08C386.234 139.72 384.834 140.56 383.394 141.6C381.954 142.64 380.674 143.84 379.554 145.2C378.514 146.56 377.994 147.96 377.994 149.4C377.994 149.8 378.114 150.32 378.354 150.96C378.674 151.6 379.034 152.24 379.434 152.88C379.914 153.52 380.434 154.08 380.994 154.56C381.554 155.04 382.154 155.28 382.794 155.28C383.034 155.28 383.554 154.4 384.354 152.64C385.234 150.88 386.114 148.92 386.994 146.76C387.954 144.6 388.794 142.6 389.514 140.76C390.314 138.92 390.714 137.96 390.714 137.88ZM389.394 170.64C389.554 170.16 389.634 169.76 389.634 169.44C389.634 168.72 389.434 167.96 389.034 167.16C388.714 166.36 388.354 165.64 387.954 165C387.554 164.36 387.154 163.84 386.754 163.44C386.434 162.96 386.234 162.72 386.154 162.72C385.194 164.32 384.274 166 383.394 167.76C382.594 169.44 381.754 171.16 380.874 172.92C381.274 173.16 381.794 173.36 382.434 173.52C383.154 173.68 383.674 173.76 383.994 173.76C385.194 173.76 386.314 173.48 387.354 172.92C388.394 172.28 389.074 171.52 389.394 170.64ZM486.854 157.8C487.254 158.2 487.454 158.44 487.454 158.52C487.454 158.68 487.214 159.16 486.734 159.96C486.334 160.76 485.774 161.6 485.054 162.48C484.334 163.36 483.534 164.16 482.654 164.88C481.854 165.52 481.054 165.84 480.254 165.84C478.574 165.84 477.214 165.52 476.174 164.88C475.134 164.16 474.254 163.28 473.534 162.24C472.894 161.2 472.374 160.08 471.974 158.88C471.654 157.6 471.374 156.4 471.134 155.28C470.974 154.72 470.814 154.44 470.654 154.44C470.414 154.44 469.934 155.32 469.214 157.08C468.494 158.76 467.694 160.64 466.814 162.72C466.014 164.72 465.214 166.6 464.414 168.36C463.694 170.04 463.214 170.88 462.974 170.88C461.534 170.88 460.294 170.28 459.254 169.08C458.294 167.8 457.494 166.36 456.854 164.76C456.294 163.08 455.854 161.4 455.534 159.72C455.214 157.96 455.014 156.6 454.934 155.64C454.694 153.48 454.174 149.88 453.374 144.84C452.574 139.8 451.894 133.68 451.334 126.48C451.174 124.96 450.974 123.6 450.734 122.4C450.574 121.12 450.374 119.72 450.134 118.2C449.894 116.68 449.694 114.96 449.534 113.04C449.374 111.12 449.294 108.76 449.294 105.96C449.294 105.8 449.334 105.28 449.414 104.4C449.494 103.52 449.614 102.56 449.774 101.52C449.934 100.48 450.174 99.56 450.494 98.76C450.894 97.96 451.334 97.56 451.814 97.56C452.374 97.56 452.894 97.92 453.374 98.64C453.854 99.28 454.254 100.04 454.574 100.92C454.974 101.8 455.254 102.64 455.414 103.44C455.574 104.24 455.654 104.8 455.654 105.12C455.654 106.32 455.574 107.44 455.414 108.48C455.254 109.52 455.174 110.48 455.174 111.36C455.174 112.56 455.254 114.08 455.414 115.92C455.654 117.76 455.934 119.64 456.254 121.56C456.574 123.48 456.854 125.36 457.094 127.2C457.334 128.96 457.534 130.4 457.694 131.52C457.694 131.6 457.774 132.16 457.934 133.2C458.094 134.24 458.254 135.56 458.414 137.16C458.654 138.68 458.854 140.36 459.014 142.2C459.254 143.96 459.494 145.72 459.734 147.48C459.974 149.16 460.174 150.68 460.334 152.04C460.574 153.32 460.734 154.24 460.814 154.8C460.814 155.04 460.854 155.4 460.934 155.88C461.094 156.28 461.214 156.76 461.294 157.32C461.454 157.88 461.614 158.4 461.774 158.88C461.934 159.36 462.134 159.72 462.374 159.96C462.854 159 463.454 157.52 464.174 155.52C464.974 153.52 465.774 151.48 466.574 149.4C467.454 147.32 468.254 145.52 468.974 144C469.774 142.4 470.454 141.6 471.014 141.6C471.654 141.6 472.174 141.72 472.574 141.96C472.974 142.2 473.494 142.4 474.134 142.56C474.934 142.88 475.334 143.32 475.334 143.88C475.334 144.36 475.414 144.96 475.574 145.68C475.734 146.64 475.974 147.92 476.294 149.52C476.694 151.04 477.134 152.56 477.614 154.08C478.094 155.52 478.654 156.76 479.294 157.8C479.934 158.84 480.574 159.36 481.214 159.36C481.534 159.36 481.974 158.96 482.534 158.16C483.094 157.28 483.854 156.8 484.814 156.72C484.974 156.72 485.254 156.84 485.654 157.08C486.054 157.24 486.454 157.48 486.854 157.8ZM539.389 124.8C539.389 124.96 539.109 125.28 538.549 125.76C537.989 126.24 537.309 126.76 536.509 127.32C535.789 127.8 535.029 128.24 534.229 128.64C533.429 129.04 532.789 129.24 532.309 129.24C531.989 129.24 531.549 129.24 530.989 129.24C530.509 129.16 529.989 129 529.429 128.76C528.949 128.52 528.509 128.2 528.109 127.8C527.709 127.32 527.509 126.72 527.509 126C527.509 124.88 527.909 123.84 528.709 122.88C529.509 121.84 530.549 121.32 531.829 121.32C532.069 121.32 532.589 121.44 533.389 121.68C534.269 121.84 535.149 122.08 536.029 122.4C536.909 122.72 537.669 123.08 538.309 123.48C539.029 123.88 539.389 124.32 539.389 124.8ZM543.349 169.68C543.349 170.24 542.909 170.72 542.029 171.12C541.229 171.52 540.629 171.72 540.229 171.72C539.429 171.72 538.709 171.2 538.069 170.16C537.429 169.12 536.869 167.92 536.389 166.56C535.909 165.2 535.509 163.92 535.189 162.72C534.869 161.44 534.629 160.56 534.469 160.08C534.229 159.28 533.909 158.32 533.509 157.2C533.109 156.08 532.709 155 532.309 153.96C531.989 152.92 531.709 152 531.469 151.2C531.229 150.4 531.109 149.96 531.109 149.88C531.109 148.76 531.309 147.72 531.709 146.76C532.189 145.8 532.749 145.32 533.389 145.32C534.109 145.32 534.869 145.88 535.669 147C536.469 148.12 537.229 149.56 537.949 151.32C538.749 153 539.469 154.88 540.109 156.96C540.749 158.96 541.309 160.88 541.789 162.72C542.269 164.48 542.629 166.04 542.869 167.4C543.189 168.68 543.349 169.44 543.349 169.68ZM624.741 165.24C624.741 165.72 624.581 166.2 624.261 166.68C623.941 167.16 623.541 167.6 623.061 168C622.661 168.4 622.181 168.76 621.621 169.08C621.141 169.32 620.701 169.44 620.301 169.44C618.941 169.44 617.181 169.16 615.021 168.6C612.941 167.96 611.261 167 609.981 165.72C608.621 164.36 607.421 162.76 606.381 160.92C605.341 159 604.181 156.2 602.901 152.52C602.021 156.04 600.981 159.52 599.781 162.96C598.661 166.4 596.821 169.56 594.261 172.44C594.101 172.6 593.861 172.68 593.541 172.68C592.981 172.68 592.381 172.4 591.741 171.84C591.101 171.28 590.781 170.72 590.781 170.16C590.781 169.6 590.701 168.32 590.541 166.32C590.461 164.24 590.341 161.96 590.181 159.48C590.021 156.92 589.861 154.36 589.701 151.8C589.621 149.16 589.581 147 589.581 145.32C589.581 144.52 589.621 143.48 589.701 142.2C589.781 140.84 590.021 139.68 590.421 138.72C590.501 138.56 590.781 138.24 591.261 137.76C591.821 137.28 592.421 137.04 593.061 137.04C593.621 137.04 593.941 137.4 594.021 138.12C594.101 138.84 594.141 139.64 594.141 140.52V159.48C594.141 159.88 594.181 160.44 594.261 161.16C594.421 161.88 594.621 162.4 594.861 162.72C595.741 160.8 596.541 158.56 597.261 156C598.061 153.36 598.821 150.88 599.541 148.56C600.261 146.16 600.981 144.16 601.701 142.56C602.421 140.88 603.141 140.04 603.861 140.04C604.661 140.04 605.301 140.2 605.781 140.52C606.261 140.84 606.661 141.48 606.981 142.44C607.381 144.76 607.701 146.84 607.941 148.68C608.181 150.44 608.461 152.04 608.781 153.48C609.181 154.92 609.701 156.28 610.341 157.56C611.061 158.76 612.021 159.88 613.221 160.92C614.341 161.96 615.581 162.72 616.941 163.2C618.381 163.68 619.621 163.92 620.661 163.92C621.141 163.92 621.661 163.84 622.221 163.68C622.781 163.44 623.181 163.32 623.421 163.32C623.741 163.32 624.021 163.6 624.261 164.16C624.581 164.72 624.741 165.08 624.741 165.24ZM698.489 169.44C698.489 170.32 698.169 170.92 697.529 171.24C696.889 171.56 696.569 172 696.569 172.56C696.489 172.48 696.649 172.92 697.049 173.88C697.449 174.84 697.809 175.84 698.129 176.88C698.689 179.04 699.169 180.92 699.569 182.52C700.049 184.12 700.409 185.6 700.649 186.96C700.969 188.32 701.209 189.68 701.369 191.04C701.529 192.4 701.609 193.92 701.609 195.6C701.609 197.28 701.329 199 700.769 200.76C700.209 202.52 699.409 204.08 698.369 205.44C697.329 206.8 696.049 207.92 694.529 208.8C693.009 209.68 691.289 210.12 689.369 210.12C686.409 210.12 684.049 209.52 682.289 208.32C680.609 207.12 679.329 205.76 678.449 204.24C677.569 202.72 677.009 201.2 676.769 199.68C676.529 198.24 676.409 197.28 676.409 196.8C676.409 193.84 677.169 190.88 678.689 187.92C680.209 184.96 681.889 182.28 683.729 179.88C685.569 177.48 687.249 175.48 688.769 173.88C690.289 172.28 691.049 171.36 691.049 171.12L689.729 167.16C688.929 168.12 688.209 169.2 687.569 170.4C687.009 171.52 686.369 172.6 685.649 173.64C685.009 174.6 684.209 175.44 683.249 176.16C682.369 176.8 681.249 177.12 679.889 177.12C678.449 177.12 677.009 176.68 675.569 175.8C674.129 174.92 672.849 173.6 671.729 171.84C670.609 170.08 669.689 167.96 668.969 165.48C668.329 163 668.009 160.12 668.009 156.84C668.009 155 668.289 152.72 668.849 150C669.409 147.2 670.289 144.52 671.489 141.96C672.689 139.4 674.169 137.24 675.929 135.48C677.769 133.64 679.889 132.72 682.289 132.72C683.649 132.72 684.889 132.96 686.009 133.44C687.209 133.92 687.809 134.52 687.809 135.24C687.809 135.88 687.689 136.4 687.449 136.8C687.209 137.2 686.889 137.6 686.489 138C686.249 137.84 685.969 137.68 685.649 137.52C685.409 137.36 685.049 137.28 684.569 137.28C682.809 137.28 681.209 138.08 679.769 139.68C678.409 141.2 677.249 143.12 676.289 145.44C675.329 147.68 674.569 150.04 674.009 152.52C673.529 155 673.289 157.16 673.289 159C673.289 163.08 673.969 166.2 675.329 168.36C676.689 170.44 678.129 171.48 679.649 171.48C680.369 171.48 681.129 170.96 681.929 169.92C682.809 168.8 683.609 167.6 684.329 166.32C685.129 164.96 685.809 163.68 686.369 162.48C686.929 161.28 687.249 160.56 687.329 160.32C687.489 159.52 687.569 158.6 687.569 157.56C687.569 156.68 687.529 155.72 687.449 154.68C687.449 153.56 687.449 152.44 687.449 151.32C687.449 149.24 687.609 147.52 687.929 146.16C688.249 144.72 689.049 144 690.329 144C691.609 144 692.529 144.4 693.089 145.2C693.649 145.92 693.929 146.8 693.929 147.84C693.929 148.56 693.889 149.44 693.809 150.48C693.809 151.44 693.809 152.4 693.809 153.36C693.809 154.24 693.769 155.04 693.689 155.76C693.689 156.4 693.689 156.8 693.689 156.96C693.689 157.44 693.729 158.16 693.809 159.12C693.969 160 694.089 160.92 694.169 161.88C694.329 162.76 694.449 163.6 694.529 164.4C694.689 165.12 694.809 165.6 694.889 165.84C694.969 166.08 695.089 166.44 695.249 166.92C695.409 167.4 695.569 167.76 695.729 168C695.809 167.84 695.969 167.68 696.209 167.52C696.449 167.28 696.649 167.08 696.809 166.92C697.209 167.16 697.569 167.64 697.889 168.36C698.289 169 698.489 169.36 698.489 169.44ZM694.409 184.68C694.089 183.4 693.729 182.12 693.329 180.84C692.929 179.56 692.529 178.24 692.129 176.88C690.769 178.56 689.449 180.16 688.169 181.68C686.969 183.28 685.849 184.84 684.809 186.36C683.849 187.88 683.049 189.44 682.409 191.04C681.849 192.72 681.569 194.48 681.569 196.32C681.569 198.8 682.249 200.84 683.609 202.44C685.049 204.04 686.609 204.84 688.289 204.84C690.129 204.84 691.849 204.16 693.449 202.8C695.129 201.44 695.969 199.48 695.969 196.92C695.969 195.24 695.929 193.84 695.849 192.72C695.769 191.6 695.649 190.6 695.489 189.72C695.409 188.92 695.249 188.12 695.009 187.32C694.849 186.6 694.649 185.72 694.409 184.68Z" fill="black"/>
</svg>
